<svg width="31" height="24" viewBox="0 0 31 24" fill="none" xmlns="http://www.w3.org/2000/svg">
<g clip-path="url(#clip0_1_226)">
<path d="M2 1.5C2.82969 1.5 3.5 2.17031 3.5 3V15H14V7.5C14 6.67031 14.6703 6 15.5 6H26C28.4844 6 30.5 8.01562 30.5 10.5V21C30.5 21.8297 29.8297 22.5 29 22.5C28.1703 22.5 27.5 21.8297 27.5 21V19.5H17H15.5H3.5V21C3.5 21.8297 2.82969 22.5 2 22.5C1.17031 22.5 0.5 21.8297 0.5 21V3C0.5 2.17031 1.17031 1.5 2 1.5ZM8.75 6C9.74456 6 10.6984 6.39509 11.4017 7.09835C12.1049 7.80161 12.5 8.75544 12.5 9.75C12.5 10.7446 12.1049 11.6984 11.4017 12.4017C10.6984 13.1049 9.74456 13.5 8.75 13.5C7.75544 13.5 6.80161 13.1049 6.09835 12.4017C5.39509 11.6984 5 10.7446 5 9.75C5 8.75544 5.39509 7.80161 6.09835 7.09835C6.80161 6.39509 7.75544 6 8.75 6Z" fill="#DC2626"/>
</g>
<defs>
<clipPath id="clip0_1_226">
<path d="M0.5 0H30.5V24H0.5V0Z" fill="white"/>
</clipPath>
</defs>
</svg>
